<?xml version="1.0" encoding="UTF-8" standalone="no"?>
<!-- Created with Inkscape (http://www.inkscape.org/) -->

<svg
   xmlns:dc="http://purl.org/dc/elements/1.1/"
   xmlns:cc="http://creativecommons.org/ns#"
   xmlns:rdf="http://www.w3.org/1999/02/22-rdf-syntax-ns#"
   xmlns:svg="http://www.w3.org/2000/svg"
   xmlns="http://www.w3.org/2000/svg"
   xmlns:sodipodi="http://sodipodi.sourceforge.net/DTD/sodipodi-0.dtd"
   xmlns:inkscape="http://www.inkscape.org/namespaces/inkscape"
   height="100%"
   width="100%"
   version="1.1"
   viewBox="0 0 1455.9562 309.86966"
   id="svg3310"
   inkscape:version="0.48.5 r10040"
   sodipodi:docname="logopictext.svg">
  <defs
     id="defs3376" />
  <sodipodi:namedview
     pagecolor="#ffffff"
     bordercolor="#666666"
     borderopacity="1"
     objecttolerance="10"
     gridtolerance="10"
     guidetolerance="10"
     inkscape:pageopacity="0"
     inkscape:pageshadow="2"
     inkscape:window-width="884"
     inkscape:window-height="595"
     id="namedview3374"
     showgrid="false"
     fit-margin-top="0"
     fit-margin-left="0"
     fit-margin-right="0"
     fit-margin-bottom="0"
     inkscape:zoom="0.4183067"
     inkscape:cx="713.12447"
     inkscape:cy="154.93483"
     inkscape:window-x="415"
     inkscape:window-y="190"
     inkscape:window-maximized="0"
     inkscape:current-layer="svg3310" />
  <metadata
     id="metadata3312">
    <rdf:RDF>
      <cc:Work
         rdf:about="">
        <dc:format>image/svg+xml</dc:format>
        <dc:type
           rdf:resource="http://purl.org/dc/dcmitype/StillImage" />
        <dc:title />
      </cc:Work>
    </rdf:RDF>
  </metadata>
  <g
     font-size="56.25018311px"
     style="font-size:56.25018311px;font-style:normal;font-weight:normal;line-height:125%;letter-spacing:0px;word-spacing:0px;fill:#ffffff;stroke:#000000;stroke-width:0.30000001;stroke-linejoin:round;stroke-miterlimit:4;font-family:Sans"
     font-style="normal"
     stroke-miterlimit="4"
     font-weight="normal"
     line-height="125%"
     id="g3318"
     transform="matrix(4.1591217,0,0,4.1591217,-277.35778,-935.84645)">
    <path
       d="m 156.03,269.84 c 2.0813,-5.5688 6.8625,-12.656 7.65,-12.656 0.50625,0 0.95625,2.4188 0.95625,5.0063 0,5.2875 -2.5875,9.8438 -5.6813,9.8438 -1.35,0 -2.3625,-0.7875 -2.925,-2.1938 m 2.025,-11.7 c 0.0563,-0.9 0.50625,-4.6688 0.50625,-5.4563 0,-1.6875 -0.95625,-2.6438 -2.6438,-2.6438 -5.9625,0 -10.856,21.994 -10.856,30.544 0,3.7125 1.1812,5.85 3.3188,5.85 0.5625,0 0.95625,-0.16875 1.4062,-0.5625 1.2938,-1.0688 2.7,-5.3438 5.0063,-12.825 1.4062,2.5875 3.0375,3.6563 5.7375,3.6563 6.8625,0 13.444,-8.3813 13.444,-17.156 0,-6.1313 -2.7563,-10.069 -7.0313,-10.069 -3.4875,0 -5.2875,2.5875 -7.9313,7.0313 l -0.95625,1.6312"
       id="path3320"
       inkscape:connector-curvature="0" />
    <path
       d="m 196.4,262.58 c -3.825,3.825 -6.8063,6.1875 -7.9313,6.1875 -1.2938,0 -2.1938,-1.4625 -2.1938,-3.4875 0,-4.8938 5.85,-11.813 6.975,-11.813 0.39375,0 1.1813,1.575 1.1813,3.15 0,1.2938 -0.50626,2.925 -1.4625,4.3875 -0.3375,0.50626 -0.45,0.78751 -0.45,1.0125 0,0.3375 0.3375,0.5625 1.0125,0.5625 0.95626,0 2.6438,-0.45 3.5438,-0.73125 l -0.67501,0.73125 m -1.0688,5.5688 c -0.0563,2.5312 -0.16875,8.3813 4.2188,8.3813 2.0813,0 3.9938,-0.95625 6.1875,-3.15 -0.61875,-1.6312 -1.0125,-3.2063 -1.0125,-7.1438 0,-1.0125 0.28125,-5.3438 0.28125,-6.2438 -0.0562,-1.575 -0.3375,-1.8 -2.25,-1.8 0.78751,-1.2375 1.125,-2.25 1.125,-3.4313 0,-2.925 -3.4313,-5.0625 -8.0438,-5.0625 -9.5063,0 -19.631,12.038 -19.631,19.969 0,4.1625 2.9813,7.2 7.1438,7.2 2.925,0 6.8063,-2.8688 11.981,-8.7188"
       id="path3322"
       inkscape:connector-curvature="0" />
    <path
       d="m 227.49,262.58 c -3.825,3.825 -6.8063,6.1875 -7.9313,6.1875 -1.2938,0 -2.1938,-1.4625 -2.1938,-3.4875 0,-4.8938 5.85,-11.813 6.975,-11.813 0.39375,0 1.1813,1.575 1.1813,3.15 0,1.2938 -0.50626,2.925 -1.4625,4.3875 -0.3375,0.50626 -0.45,0.78751 -0.45,1.0125 0,0.3375 0.3375,0.5625 1.0125,0.5625 0.95626,0 2.6438,-0.45 3.5438,-0.73125 l -0.67501,0.73125 m -1.0688,5.5688 c -0.0563,2.5312 -0.16875,8.3813 4.2188,8.3813 2.0813,0 3.9938,-0.95625 6.1875,-3.15 -0.61875,-1.6312 -1.0125,-3.2063 -1.0125,-7.1438 0,-1.0125 0.28125,-5.3438 0.28125,-6.2438 -0.0563,-1.575 -0.3375,-1.8 -2.25,-1.8 0.78751,-1.2375 1.125,-2.25 1.125,-3.4313 0,-2.925 -3.4313,-5.0625 -8.0438,-5.0625 -9.5063,0 -19.631,12.038 -19.631,19.969 0,4.1625 2.9813,7.2 7.1438,7.2 2.925,0 6.8063,-2.8688 11.981,-8.7188"
       id="path3324"
       inkscape:connector-curvature="0" />
    <path
       d="m 265.25,257.69 c 0,-1.8562 -0.84376,-2.9813 -2.3063,-2.9813 -3.4875,0 -9.1688,5.4563 -12.206,8.55 1.7438,-14.063 6.4125,-21.769 7.3688,-21.769 0.28125,0 0.28125,0.7875 0.28125,1.4625 0,2.7562 -1.4062,7.5938 -3.2625,11.138 -0.45,0.7875 -0.73125,1.5188 -0.73125,1.8 0,0.3375 0.3375,0.675 0.73125,0.675 2.3625,0 9.7313,-5.5688 9.7313,-11.644 0,-3.8813 -2.7,-6.4688 -6.6938,-6.4688 -3.2062,0 -6.3563,2.1938 -9,6.2438 -3.0375,4.725 -9.2813,17.438 -9.2813,25.875 0,3.4312 1.125,5.7938 2.7,5.7938 1.9125,0 4.275,-1.5188 7.5938,-4.725 1.8562,-1.9688 2.4188,-2.5313 5.4,-5.4 -0.225,1.4625 -0.28125,2.3063 -0.28125,3.0375 0,4.275 1.8,7.0875 4.5,7.0875 2.4188,0 6.2438,-2.0812 6.2438,-2.8688 0,-0.84375 -1.6313,-4.95 -1.6313,-7.5375 0,-2.3062 0.84376,-6.6938 0.84376,-8.2688"
       id="path3326"
       inkscape:connector-curvature="0" />
    <path
       d="m 272.79,276.42 c 1.9688,0 2.8125,-1.2938 3.5438,-3.2063 2.3625,-6.4125 3.7688,-13.05 3.7688,-17.888 0,-3.2063 -1.4062,-5.2875 -3.5438,-5.2875 -0.9,0 -1.7438,0.3375 -2.3062,1.0688 -2.8688,3.375 -5.5125,12.375 -5.5125,18.506 0,6.1313 3.375,6.75 4.05,6.8063 m 3.2625,-27.619 c 2.6438,0 4.8938,-3.7688 4.8938,-7.5375 0,-2.0812 -0.78751,-2.9813 -2.6438,-2.9813 -1.0688,0 -1.6313,0.225 -2.3063,0.95625 -1.2938,1.2938 -2.475,4.3875 -2.475,6.4688 0,2.025 0.84376,3.0375 2.5313,3.0938"
       id="path3328"
       inkscape:connector-curvature="0" />
    <path
       d="m 293.6,261.63 c 0.7875,-3.4313 1.125,-5.85 1.125,-7.875 0,-2.4188 -1.0125,-3.7125 -2.8688,-3.7125 -1.1812,0 -2.1375,0.39375 -2.9813,1.2375 -3.8813,4.05 -6.9188,16.875 -6.9188,21.094 0,2.8125 1.6313,4.725 3.9375,4.725 0.84376,0 1.575,-0.33751 2.3063,-1.0125 3.6,-3.9938 4.725,-6.4125 10.125,-11.813 -0.28125,1.9125 -0.3375,2.8125 -0.3375,3.8813 0,4.8375 2.3063,8.325 5.5125,8.325 1.575,0 4.95,-1.4062 4.95,-2.5312 0,-0.73126 -0.61876,-2.7563 -0.73126,-3.2625 -0.16875,-1.0125 -0.39375,-2.7563 -0.39375,-4.6125 0,-3.375 0.5625,-6.9188 0.5625,-8.3813 0,-3.375 -0.95625,-4.6688 -3.5438,-4.6688 -2.3625,0 -4.3875,1.5188 -9,6.6938 l -1.7438,1.9125"
       id="path3330"
       inkscape:connector-curvature="0" />
    <path
       d="m 325.76,255.21 c 0,1.1812 -0.33751,6.8625 -3.6,10.969 -0.50626,0.61875 -0.95626,1.0125 -1.9688,1.6875 -0.0562,-0.73125 -0.0562,-1.1813 -0.0562,-1.6313 0,-4.5563 3.7688,-12.544 5.0063,-12.544 0.39375,0 0.61875,0.5625 0.61875,1.5188 m 7.2,0.61875 c 0,-3.825 -2.0813,-6.1313 -5.5125,-6.1313 -3.9938,0 -9.3375,2.7 -12.825,7.9313 -2.3625,3.6563 -3.9938,8.2688 -3.9938,11.531 0,4.4438 2.925,7.2 7.4813,7.2 6.2438,0 14.513,-7.2 14.513,-8.4375 0,-0.61875 -1.1812,-1.35 -2.25,-1.35 -0.45,0 -1.35,0.50626 -2.5875,1.4063 -2.1938,1.575 -3.9938,2.4188 -5.3438,2.4188 -1.2938,-0.0563 -2.025,-0.61875 -2.1375,-1.6875 0.45,0.28125 0.675,0.3375 1.1812,0.3375 3.7688,0 11.475,-6.9188 11.475,-13.219"
       id="path3332"
       inkscape:connector-curvature="0" />
    <path
       d="m 333.09,276.19 c 0.95625,0 2.475,-0.39375 3.825,-0.9 1.125,-0.45 1.4625,-0.7875 1.8563,-1.8563 0.61875,-1.575 1.0688,-3.5438 1.0688,-4.5563 0,-1.2938 -0.5625,-1.9688 -1.6875,-1.9688 -1.6313,0 -4.1063,0.84376 -5.175,1.8 -1.2375,1.125 -2.3625,4.5563 -2.3625,5.7938 0,1.0688 0.84376,1.6875 2.475,1.6875"
       id="path3334"
       inkscape:connector-curvature="0" />
    <path
       d="m 356.33,261.63 c 0.7875,-3.4313 1.125,-5.85 1.125,-7.875 0,-2.4188 -1.0125,-3.7125 -2.8688,-3.7125 -1.1812,0 -2.1375,0.39375 -2.9813,1.2375 -3.8812,4.05 -6.9188,16.875 -6.9188,21.094 0,2.8125 1.6313,4.725 3.9375,4.725 0.84375,0 1.575,-0.33751 2.3062,-1.0125 3.6,-3.9938 4.725,-6.4125 10.125,-11.813 -0.28126,1.9125 -0.33751,2.8125 -0.33751,3.8813 0,4.8375 2.3063,8.325 5.5125,8.325 1.575,0 4.95,-1.4062 4.95,-2.5312 0,-0.73126 -0.61875,-2.7563 -0.73125,-3.2625 -0.16875,-1.0125 -0.39376,-2.7563 -0.39376,-4.6125 0,-3.375 0.56251,-6.9188 0.56251,-8.3813 0,-3.375 -0.95626,-4.6688 -3.5438,-4.6688 -2.3625,0 -4.3875,1.5188 -9,6.6938 l -1.7438,1.9125"
       id="path3336"
       inkscape:connector-curvature="0" />
    <path
       d="m 388.49,255.21 c 0,1.1812 -0.3375,6.8625 -3.6,10.969 -0.50625,0.61875 -0.95626,1.0125 -1.9688,1.6875 -0.0562,-0.73125 -0.0562,-1.1813 -0.0562,-1.6313 0,-4.5563 3.7688,-12.544 5.0063,-12.544 0.39375,0 0.61875,0.5625 0.61875,1.5188 m 7.2,0.61875 c 0,-3.825 -2.0813,-6.1313 -5.5125,-6.1313 -3.9938,0 -9.3375,2.7 -12.825,7.9313 -2.3625,3.6563 -3.9938,8.2688 -3.9938,11.531 0,4.4438 2.925,7.2 7.4813,7.2 6.2438,0 14.513,-7.2 14.513,-8.4375 0,-0.61875 -1.1812,-1.35 -2.25,-1.35 -0.45,0 -1.35,0.50626 -2.5875,1.4063 -2.1938,1.575 -3.9938,2.4188 -5.3438,2.4188 -1.2938,-0.0563 -2.025,-0.61875 -2.1375,-1.6875 0.45,0.28125 0.675,0.3375 1.1813,0.3375 3.7688,0 11.475,-6.9188 11.475,-13.219"
       id="path3338"
       inkscape:connector-curvature="0" />
    <path
       d="m 404.68,250.43 c -2.475,0.50625 -4.4438,2.8125 -4.4438,5.1188 0,1.35 0.5625,1.9125 2.025,1.9125 -0.16875,0.7875 -0.225,0.95626 -0.61876,2.25 -1.35,4.7813 -1.9125,7.65 -1.9125,9.5625 0,4.275 2.5875,7.0875 6.4688,7.0875 4.5563,0 8.2125,-4.2188 8.2125,-5.1188 0,-0.1125 -0.16876,-0.16875 -0.50626,-0.16875 -2.925,0 -4.4438,-1.2938 -4.4438,-4.3313 0,-2.7 0.61875,-6.8625 1.5188,-9.5063 1.4625,-0.1125 2.1375,-0.225 2.925,-0.5625 1.6313,-0.73125 2.7,-2.5313 2.7,-4.5 0,-1.2938 -0.61875,-1.35 -3.6,-1.8563 0.5625,-2.25 1.1813,-4.1063 2.0813,-6.075 0.5625,-1.2938 0.84375,-2.1375 0.84375,-2.5875 0,-1.1812 -0.84375,-1.9125 -2.25,-1.9125 -1.6312,0 -4.5,1.125 -5.7375,3.0938 -1.4062,2.1938 -2.8125,6.3 -3.2625,7.5938"
       id="path3340"
       inkscape:connector-curvature="0" />
  </g>
  <path
     d="m 912.89608,220.84541 2.21008,0 0,3.6835 -2.21008,0 z"
     stroke-miterlimit="4"
     id="path3348"
     inkscape:connector-curvature="0"
     style="fill:#000000;stroke:#000000;stroke-width:0.6099754;stroke-linejoin:round;stroke-miterlimit:4" />
  <g
     transform="matrix(0.35972672,0,0,0.35972672,2.1761234e-4,-7.9793946e-4)"
     id="g3350">
    <flowRoot
       font-size="40px"
       line-height="125%"
       xml:space="preserve"
       transform="matrix(3.5414793,0,0,3.5414793,-81.166812,-1017.6645)"
       style="font-size:40px;font-style:normal;font-weight:normal;line-height:125%;letter-spacing:0px;word-spacing:0px;fill:#000000;font-family:Sans"
       font-weight="normal"
       font-style="normal"
       id="flowRoot3352"><flowRegion
         id="flowRegion3354"><rect
           y="-4.7807002"
           width="1200"
           x="-497.14001"
           height="688.57001"
           id="rect3356" /></flowRegion></flowRoot>    <g
       transform="translate(0.18761933,-0.32075253)"
       id="g3358">
      <path
         d="m 719.82,570.79 c 2.81,132.4 -102.98,255.55 -234.17,273.06 -128.53,22.42 -264.27,-60.24 -303.8,-184.46 -44.28,-123.04 13.97,-271.37 130.06,-331.5 113.82,-64.587 270.26,-32.206 349,72.353 38.059,48.126 59.145,109.19 58.919,170.55 z"
         stroke-miterlimit="4"
         id="path3360"
         inkscape:connector-curvature="0"
         style="fill:#ffff00;stroke:#000000;stroke-width:28.33183479;stroke-miterlimit:4" />
      <path
         d="m 415.26,553.94 c 2.5538,49.098 -62.642,79.842 -98.904,46.647 -39.247,-29.109 -22.024,-98.473 26.27,-105.87 36.255,-8.4336 73.609,21.998 72.634,59.223 z"
         id="path3362"
         inkscape:connector-curvature="0"
         style="fill:#000000" />
      <path
         d="m 594.32,524.86 c 2.5538,49.098 -62.642,79.842 -98.904,46.647 -39.247,-29.109 -22.024,-98.473 26.27,-105.87 36.255,-8.4336 73.609,21.998 72.634,59.223 z"
         id="path3364"
         inkscape:connector-curvature="0"
         style="fill:#000000" />
      <path
         d="m 370.32,706.46 c 24.438,52.914 101.88,54.413 145.57,25.303 20.041,-13.154 35.881,-34.393 38.307,-58.722"
         stroke-miterlimit="4"
         id="path3366"
         inkscape:connector-curvature="0"
         style="fill:none;stroke:#000000;stroke-width:14.16591644;stroke-linecap:round;stroke-linejoin:miter;stroke-miterlimit:4" />
      <path
         d="M 395.79,97.16 C 250.71,94.211 115.2,207.85 92.26,351.02 c -10.317,57.52 -4.023,117.96 18.368,171.96 197.29,-49.94 394.57,-99.89 591.86,-149.84 -12.4,-144.55 -139.58,-267.63 -284.48,-275.2 -7.3945,-0.52549 -14.809,-0.79143 -22.221,-0.78473 z"
         id="path3368"
         inkscape:connector-curvature="0"
         style="fill:#000000" />
      <path
         d="M 244.27,243.34 C 247.06,320.24 165.39,383.5 91.61,361.63 16.88,345.1 -24.12,251.11 14.74,185.12 48.773,116.76 149.58,99.576 204.25,152.93 c 25.282,22.746 40.23,56.382 40.014,90.406 z"
         id="path3370"
         inkscape:connector-curvature="0"
         style="fill:#000000" />
      <path
         d="m 629.52,122.13 c 2.79,76.9 -78.87,140.17 -152.66,118.29 -74.72,-16.53 -115.73,-110.51 -76.87,-176.5 34.04,-68.363 134.84,-85.545 189.52,-32.19 25.282,22.746 40.23,56.382 40.014,90.406 z"
         id="path3372"
         inkscape:connector-curvature="0"
         style="fill:#000000" />
    </g>
  </g>
</svg>
